<?xml version="1.0" standalone="no"?>
<!DOCTYPE svg PUBLIC "-//W3C//DTD SVG 20010904//EN"
 "http://www.w3.org/TR/2001/REC-SVG-20010904/DTD/svg10.dtd">
<svg version="1.0" xmlns="http://www.w3.org/2000/svg"
 width="171.000000pt" height="171.000000pt" viewBox="0 0 171.000000 171.000000"
 preserveAspectRatio="xMidYMid meet">
<metadata>
Created by potrace 1.11, written by Peter Selinger 2001-2013
</metadata>
<g transform="translate(0.000000,171.000000) scale(0.100000,-0.100000)"
fill="#000000" stroke="none">
<path d="M413 1696 c-127 -31 -270 -143 -325 -256 -55 -111 -58 -141 -58 -555
0 -354 1 -386 21 -455 26 -95 75 -175 145 -239 53 -49 164 -111 199 -111 9 0
14 -4 11 -9 -4 -5 4 -7 16 -3 13 3 19 1 15 -5 -5 -7 1 -9 15 -5 21 5 22 4 8
-14 -14 -17 -14 -18 2 -6 9 8 23 10 29 6 7 -4 9 -3 6 3 -4 6 10 9 33 9 22 0
40 -4 40 -8 0 -4 5 -8 11 -8 5 0 8 4 5 8 -3 5 1 9 9 9 8 0 15 -4 15 -9 0 -5 6
-6 13 -1 21 13 47 13 47 0 0 -8 4 -7 10 3 6 10 10 11 10 3 0 -7 5 -13 11 -13
5 0 8 4 5 8 -6 10 45 9 63 -2 9 -6 12 -5 7 2 -4 7 1 10 14 9 11 -1 20 -5 20
-9 0 -4 5 -8 11 -8 5 0 8 4 5 8 -3 5 1 9 9 9 8 0 15 -4 15 -9 0 -5 6 -6 13 -1
19 12 107 13 107 1 0 -7 5 -6 14 1 11 10 20 10 37 1 14 -8 19 -8 15 -1 -4 6
-2 11 3 11 6 0 11 -5 11 -11 0 -8 4 -8 14 0 11 10 20 10 37 1 14 -8 19 -8 15
-1 -4 6 -2 11 3 11 6 0 11 -5 11 -12 0 -9 3 -9 12 0 19 19 32 14 17 -5 -11
-15 -10 -14 9 1 12 11 22 14 22 8 0 -7 5 -12 11 -12 5 0 8 3 5 8 -2 4 12 8 32
10 55 3 62 5 62 14 0 4 3 7 8 6 4 0 16 2 27 7 173 66 300 208 334 374 18 86
14 795 -5 866 -25 97 -63 165 -133 235 -70 69 -141 110 -231 134 -74 19 -807
21 -887 2z"/>
<path d="M640 40 c-9 -6 -10 -10 -3 -10 6 0 15 5 18 10 8 12 4 12 -15 0z"/>
<path d="M890 44 c0 -1 6 -7 14 -13 10 -9 15 -8 19 2 3 8 -3 13 -14 13 -11 0
-19 -1 -19 -2z"/>
<path d="M516 28 c3 -5 10 -6 15 -3 13 9 11 12 -6 12 -8 0 -12 -4 -9 -9z"/>
<path d="M990 36 c0 -2 7 -7 16 -10 8 -3 12 -2 9 4 -6 10 -25 14 -25 6z"/>
<path d="M1070 36 c0 -2 7 -7 16 -10 8 -3 12 -2 9 4 -6 10 -25 14 -25 6z"/>
</g>
</svg>
